<svg width="217" height="80" viewBox="0 0 217 80" fill="none" xmlns="http://www.w3.org/2000/svg">
<path d="M148.848 53.82H149.348H152.16C154.586 53.82 156.728 53.4526 158.576 52.7034L158.579 52.7021C160.433 51.9358 161.992 50.9163 163.245 49.638L163.249 49.6345C164.492 48.3415 165.429 46.8942 166.054 45.2939L166.055 45.2915C166.676 43.6765 166.988 42.0318 166.988 40.36V39.568C166.988 37.7576 166.678 36.0405 166.055 34.4205C165.429 32.7941 164.49 31.3662 163.24 30.1407C161.984 28.8848 160.421 27.9134 158.564 27.22C156.72 26.5222 154.582 26.18 152.16 26.18H149.348H148.848H148.128H147.628H142.152H141.652V26.68V53.32V53.82H142.152H147.628H148.128H148.848ZM149.348 46.556V33.444H152.448C153.531 33.444 154.481 33.5937 155.306 33.8837L155.314 33.8864L155.322 33.8888C156.168 34.1561 156.867 34.5632 157.43 35.1044L157.43 35.1045L157.437 35.1114C157.998 35.6288 158.437 36.2929 158.749 37.1169L158.748 37.1169L158.75 37.1212C159.059 37.9153 159.22 38.8595 159.22 39.964C159.22 41.0164 159.06 41.9505 158.749 42.7731C158.438 43.5732 157.996 44.2557 157.426 44.827C156.859 45.3712 156.155 45.8032 155.303 46.1175C154.478 46.4067 153.529 46.556 152.448 46.556H149.348ZM169.672 53.176V53.676H170.172H175.432H175.932H176.652H177.152H187.02H187.52V53.176V47.704V47.204H187.02H177.152V43.056H186.264H186.764V42.556V37.084V36.584H186.264H177.152V32.868H186.804H187.304V32.368V26.896V26.396H186.804H177.152H176.652H175.932H175.432H170.172H169.672V26.896V53.176ZM196.684 53.3154L196.789 53.676H197.164H207.964H208.347L208.447 53.3069L215.575 27.0269L215.746 26.396H215.092H208.396H208.005L207.911 26.7761L202.828 47.348H202.391L196.928 26.7677L196.829 26.396H196.444H189.532H188.867L189.052 27.0354L196.684 53.3154Z" fill="white" stroke="black"/>
<path d="M0 8C0 3.58172 3.58172 0 8 0H128C132.418 0 136 3.58172 136 8V72C136 76.4183 132.418 80 128 80H8C3.58172 80 0 76.4183 0 72V8Z" fill="#03172d"/>
<path fill-rule="evenodd" clip-rule="evenodd" d="M109.008 44.4879C110.384 44.447 111.624 44.2503 112.728 43.8978L111.951 44.1149L110 44.4294L109.008 44.4879Z" fill="white"/>
<path d="M99.8547 27.576V54H103.383V44.496V41.364V30.672V27.576H99.8547Z" fill="white"/>
<path d="M116.091 54H120.375L112.728 43.8978C111.624 44.2503 110.384 44.447 109.008 44.4879L116.091 54Z" fill="white"/>
<path d="M82.6495 54.648C80.2495 54.648 78.1975 54.228 76.4935 53.388C74.8135 52.548 73.4575 51.456 72.4255 50.112C71.3935 48.768 70.6375 47.316 70.1575 45.756C69.6775 44.172 69.4375 42.648 69.4375 41.184V40.392C69.4375 38.808 69.6775 37.224 70.1575 35.64C70.6615 34.056 71.4295 32.616 72.4615 31.32C73.4935 30.024 74.8375 28.98 76.4935 28.188C78.1495 27.396 80.1295 27 82.4335 27C84.7855 27 86.8015 27.408 88.4815 28.224C90.1615 29.04 91.4935 30.18 92.4775 31.644C93.4615 33.108 94.0615 34.836 94.2775 36.828H90.6775C90.4855 35.34 90.0055 34.116 89.2375 33.156C88.4695 32.172 87.4975 31.44 86.3215 30.96C85.1695 30.48 83.8735 30.24 82.4335 30.24C80.8735 30.24 79.5055 30.516 78.3295 31.068C77.1535 31.596 76.1695 32.352 75.3775 33.336C74.6095 34.296 74.0215 35.412 73.6135 36.684C73.2295 37.956 73.0375 39.336 73.0375 40.824C73.0375 42.24 73.2295 43.584 73.6135 44.856C74.0215 46.128 74.6215 47.256 75.4135 48.24C76.2295 49.224 77.2375 50.004 78.4375 50.58C79.6375 51.132 81.0415 51.408 82.6495 51.408C84.9055 51.408 86.8015 50.844 88.3375 49.716C89.8735 48.588 90.8095 46.956 91.1455 44.82H94.7455C94.5055 46.62 93.8935 48.264 92.9095 49.752C91.9495 51.24 90.6055 52.428 88.8775 53.316C87.1735 54.204 85.0975 54.648 82.6495 54.648Z" fill="white"/>
<path d="M54.9492 54.648C52.7652 54.648 50.9052 54.288 49.3692 53.568C47.8332 52.848 46.6572 51.852 45.8412 50.58C45.0252 49.308 44.6172 47.868 44.6172 46.26H48.1452C48.1452 47.052 48.3492 47.844 48.7572 48.636C49.1892 49.428 49.8972 50.088 50.8812 50.616C51.8892 51.144 53.2452 51.408 54.9492 51.408C56.5332 51.408 57.8292 51.18 58.8372 50.724C59.8452 50.244 60.5892 49.632 61.0692 48.888C61.5492 48.12 61.7892 47.292 61.7892 46.404C61.7892 45.324 61.3212 44.436 60.3852 43.74C59.4492 43.02 58.0812 42.576 56.2812 42.408L53.3652 42.156C51.0372 41.964 49.1772 41.244 47.7852 39.996C46.3932 38.748 45.6972 37.104 45.6972 35.064C45.6972 33.456 46.0812 32.052 46.8492 30.852C47.6412 29.652 48.7332 28.716 50.1252 28.044C51.5172 27.348 53.1372 27 54.9852 27C56.8092 27 58.4172 27.336 59.8092 28.008C61.2012 28.68 62.2812 29.628 63.0492 30.852C63.8412 32.052 64.2372 33.492 64.2372 35.172H60.7092C60.7092 34.332 60.5052 33.54 60.0972 32.796C59.7132 32.052 59.1012 31.44 58.2612 30.96C57.4212 30.48 56.3292 30.24 54.9852 30.24C53.6892 30.24 52.6092 30.468 51.7452 30.924C50.9052 31.38 50.2692 31.98 49.8372 32.724C49.4292 33.444 49.2252 34.224 49.2252 35.064C49.2252 36.024 49.5972 36.876 50.3412 37.62C51.0852 38.364 52.1892 38.796 53.6532 38.916L56.5692 39.168C58.3692 39.312 59.9172 39.696 61.2132 40.32C62.5332 40.92 63.5412 41.736 64.2372 42.768C64.9572 43.776 65.3172 44.988 65.3172 46.404C65.3172 48.012 64.8852 49.44 64.0212 50.688C63.1572 51.936 61.9452 52.908 60.3852 53.604C58.8252 54.3 57.0132 54.648 54.9492 54.648Z" fill="white"/>
<path d="M29.212 54.648C26.812 54.648 24.76 54.228 23.056 53.388C21.376 52.548 20.02 51.456 18.988 50.112C17.956 48.768 17.2 47.316 16.72 45.756C16.24 44.172 16 42.648 16 41.184V40.392C16 38.808 16.24 37.224 16.72 35.64C17.224 34.056 17.992 32.616 19.024 31.32C20.056 30.024 21.4 28.98 23.056 28.188C24.712 27.396 26.692 27 28.996 27C31.348 27 33.364 27.408 35.044 28.224C36.724 29.04 38.056 30.18 39.04 31.644C40.024 33.108 40.624 34.836 40.84 36.828H37.24C37.048 35.34 36.568 34.116 35.8 33.156C35.032 32.172 34.06 31.44 32.884 30.96C31.732 30.48 30.436 30.24 28.996 30.24C27.436 30.24 26.068 30.516 24.892 31.068C23.716 31.596 22.732 32.352 21.94 33.336C21.172 34.296 20.584 35.412 20.176 36.684C19.792 37.956 19.6 39.336 19.6 40.824C19.6 42.24 19.792 43.584 20.176 44.856C20.584 46.128 21.184 47.256 21.976 48.24C22.792 49.224 23.8 50.004 25 50.58C26.2 51.132 27.604 51.408 29.212 51.408C31.468 51.408 33.364 50.844 34.9 49.716C36.436 48.588 37.372 46.956 37.708 44.82H41.308C41.068 46.62 40.456 48.264 39.472 49.752C38.512 51.24 37.168 52.428 35.44 53.316C33.736 54.204 31.66 54.648 29.212 54.648Z" fill="white"/>
<path d="M110 44.4294L111.951 44.1149L112.728 43.8978C112.98 43.8173 113.225 43.7287 113.463 43.632C114.903 43.056 116.019 42.168 116.811 40.968C117.627 39.768 118.035 38.22 118.035 36.324V35.748C118.035 33.852 117.639 32.304 116.847 31.104C116.055 29.904 114.939 29.016 113.499 28.44C112.059 27.864 110.379 27.576 108.459 27.576H103.383V30.672H109.107C110.211 30.672 111.159 30.912 111.951 31.392C112.743 31.848 113.355 32.484 113.787 33.3C114.219 34.092 114.435 35.004 114.435 36.036C114.435 37.068 114.219 37.992 113.787 38.808C113.355 39.6 112.743 40.224 111.951 40.68C111.159 41.136 110.211 41.364 109.107 41.364H103.383V44.496H108.459C108.644 44.496 108.827 44.4933 109.008 44.4879L110 44.4294Z" fill="white"/>
</svg>
